<svg width="221" height="22" viewBox="0 0 221 22" fill="none" xmlns="http://www.w3.org/2000/svg">
<g clip-path="url(#clip0_7_2)">
<path d="M0.625841 0.689895C0.938761 0.229965 1.48637 0 2.11221 0H9.23115C10.6393 0 11.891 0.30662 12.9862 0.919861C14.0814 1.5331 15.0202 2.37631 15.7242 3.52613C16.4283 4.67596 16.7412 6.05575 16.7412 7.6655C16.7412 9.19861 16.3501 10.5017 15.7242 11.6516C15.0202 12.8014 14.0814 13.6446 12.908 14.1812C11.7345 14.7178 10.4828 15.0244 9.15292 15.0244H4.06796V14.6411C4.06796 15.7909 3.9115 16.4042 3.52035 16.7875C3.1292 17.1707 2.65982 17.324 2.11221 17.324C1.5646 17.324 1.09522 17.1707 0.625841 16.7108C0.23469 16.4042 0 15.9443 0 15.331V2.06969C0 1.5331 0.15646 1.07317 0.625841 0.689895ZM4.06796 11.3449H9.23115C9.93522 11.3449 10.5611 11.1916 11.1087 10.8084C11.6563 10.4251 12.1257 10.0418 12.4386 9.42857C12.7515 8.89199 12.908 8.27875 12.908 7.6655C12.908 6.59233 12.5168 5.67247 11.8127 4.90592C11.1087 4.13937 10.2481 3.7561 9.23115 3.7561H4.06796V11.3449Z" fill="#252528"/>
<path d="M71.2676 1.83972C71.2676 1.30314 71.424 0.919861 71.8152 0.536585C72.2063 0.15331 72.6757 0 73.2233 0C73.6927 0 74.1621 0.15331 74.475 0.536585C74.7879 0.919861 75.0226 1.30314 75.0226 1.83972V18.0906H78.9341C79.6382 18.0906 80.1858 18.3206 80.577 18.7038C80.9681 19.0871 81.2028 19.547 81.2028 20.0836C81.2028 20.6202 80.9681 21.0801 80.577 21.4634C80.1858 21.8467 79.6382 22.0767 78.9341 22.0767H73.2233C72.6757 22.0767 72.2063 21.9233 71.8152 21.5401C71.424 21.1568 71.2676 20.7735 71.2676 20.2369V1.83972Z" fill="#252528"/>
<path d="M66.7303 6.36236C66.7303 7.43553 65.8697 8.35539 64.6963 8.35539C63.5228 8.35539 62.6623 7.51218 62.6623 6.36236C62.6623 5.21253 63.5228 4.36932 64.6963 4.36932C65.8697 4.36932 66.7303 5.28918 66.7303 6.36236Z" fill="#4E7DF6"/>
<path d="M4.06796 19.9303C4.06796 21.0035 3.1292 21.9233 2.03398 21.9233C0.938761 21.9233 0 21.0801 0 19.9303C0 18.8571 0.938761 17.9373 2.03398 17.9373C3.1292 17.9373 4.06796 18.8571 4.06796 19.9303Z" fill="#9546F4"/>
<path d="M85.1926 21.3868C84.4103 22.1533 83.1586 22.1533 82.3763 21.3868C81.594 20.6202 81.594 19.3937 82.3763 18.6272C83.1586 17.8606 84.4103 17.8606 85.1926 18.6272C85.9749 19.3937 85.9749 20.6202 85.1926 21.3868Z" fill="#70C9FF"/>
<path d="M41.6184 8.58538C41.6184 9.65855 40.7579 10.5784 39.6627 10.5784C38.5674 10.5784 37.7069 9.7352 37.7069 8.58538C37.7069 7.43555 38.5674 6.59235 39.6627 6.59235C40.7579 6.59235 41.6184 7.51221 41.6184 8.58538Z" fill="#8A5FF6"/>
<path d="M41.7749 13.0314C41.7749 12.9547 41.7749 12.9547 41.7749 13.0314C41.7749 12.9547 41.7749 12.9547 41.7749 13.0314C41.6966 11.9582 41.0708 10.9617 39.7409 11.0383C38.4892 11.0383 37.8634 11.8815 37.7069 12.8014C37.5504 13.6446 37.2375 14.3345 36.7681 15.0244C36.0641 16.0976 35.1253 16.9408 34.0301 17.4774C32.9349 18.0139 31.7614 18.3206 30.5097 18.3206C29.3363 18.3206 28.1628 18.0139 27.0676 17.4774C25.9724 16.9408 25.0336 16.0976 24.3296 15.0244C23.6255 13.9512 23.3126 12.6481 23.3126 11.115C23.3126 9.58189 23.7037 8.27875 24.3296 7.20558C24.9554 6.13241 25.8942 5.2892 27.0676 4.75262C28.1628 4.21603 29.3363 3.90941 30.5097 3.90941C31.7614 3.90941 32.9349 4.13938 34.0301 4.75262C34.7342 5.05924 35.2818 5.51917 35.8294 6.05575C36.1423 6.43903 36.6117 6.66899 37.3158 6.66899C39.3497 6.66899 39.8191 4.21603 38.6457 3.21952L38.5674 3.14286C37.8634 2.52962 37.1593 1.99304 36.2988 1.53311C34.5777 0.689901 32.8566 0.153315 30.9791 0.0766602C29.0234 0.0766602 27.1458 0.53659 25.3466 1.30314C23.5473 2.06969 22.1391 3.37283 21.0439 5.05924C19.9487 6.74565 19.4011 8.73868 19.4011 11.115C19.4011 13.4913 19.9487 15.4843 21.0439 17.1707C22.1391 18.8571 23.6255 20.0836 25.3466 20.9268C27.1458 21.77 29.0234 22.0767 30.9791 22C32.8566 22 34.6559 21.6167 36.2988 20.7735C37.9416 19.9303 39.3497 18.7038 40.3667 17.0174C40.9926 16.0976 41.3837 15.1011 41.6184 13.9512C41.6966 13.6446 41.7749 13.338 41.7749 13.0314Z" fill="#252528"/>
<path d="M67.5908 10.4251C67.5908 10.3484 67.5908 10.3484 67.5908 10.4251C67.5908 10.3484 67.5908 10.3484 67.5908 10.4251C67.2779 9.42857 66.4174 8.58536 65.1657 8.96864C63.9922 9.1986 63.5228 10.1951 63.6011 11.115C63.6011 11.9582 63.5228 12.7247 63.2881 13.4913C62.8188 14.7178 62.1929 15.7143 61.1759 16.4808C60.1589 17.2474 59.142 17.784 57.9685 18.0906C56.795 18.3972 55.6216 18.3972 54.4481 18.0906C53.2747 17.784 52.1795 17.2474 51.2407 16.3275C50.302 15.4077 49.6761 14.2578 49.285 12.8014C48.8938 11.3449 48.972 9.96515 49.3632 8.81533C49.7543 7.58885 50.4584 6.59233 51.3972 5.82578C52.3359 5.05923 53.4312 4.52264 54.5264 4.21602C55.6998 3.9094 56.9515 3.9094 58.125 4.21602C58.9073 4.29268 59.6113 4.5993 60.2372 4.98257C60.6283 5.2892 61.1759 5.36585 61.8018 5.21254C63.7575 4.75261 63.6011 2.29965 62.2712 1.5331C62.1929 1.5331 62.1929 1.45644 62.1147 1.45644C61.3324 0.996512 60.4719 0.689892 59.5331 0.459927C57.6556 -3.03611e-06 55.7781 -0.0766581 53.9788 0.229962C52.1012 0.689892 50.302 1.5331 48.8156 2.75958C47.251 3.98606 46.1558 5.51916 45.5299 7.43554C44.8258 9.27526 44.7476 11.4216 45.3735 13.6446C45.9211 15.9442 46.9381 17.784 48.4244 19.1638C49.9108 20.5435 51.6319 21.3868 53.5094 21.77C55.3869 22.1533 57.3427 22.0767 59.2202 21.5401C61.0195 21.0801 62.6623 20.3136 64.0704 19.0871C65.4786 17.8606 66.5738 16.3275 67.1997 14.4878C67.5126 13.4913 67.7473 12.4181 67.7473 11.2683C67.7473 11.0383 67.7473 10.655 67.5908 10.4251Z" fill="#252528"/>
<path d="M104.437 18.5505C104.672 18.5505 104.828 18.6272 104.985 18.7805C105.141 18.9338 105.219 19.0871 105.219 19.3171C105.219 19.547 105.141 19.7003 105.063 19.777C104.124 20.4669 103.186 21.0035 102.09 21.3868C100.995 21.77 99.9781 21.9233 98.8046 21.9233C97.4747 21.9233 96.223 21.6934 95.0496 21.1568C93.8761 20.6969 92.7809 19.9303 91.8421 19.0871C90.9034 18.1672 90.1993 17.0941 89.7299 15.9442C89.2606 14.7944 88.9476 13.5679 88.9476 12.2648C88.9476 9.58187 89.8864 7.28222 91.8421 5.4425C93.7979 3.52612 96.1448 2.60626 98.8829 2.60626C101.23 2.60626 103.342 3.37281 105.141 4.82926C105.298 4.98257 105.376 5.13588 105.376 5.36584C105.376 5.59581 105.298 5.74912 105.141 5.90243C104.985 6.05574 104.828 6.13239 104.594 6.13239C104.359 6.13239 104.203 6.05574 103.968 5.82577C102.56 4.67595 100.839 4.13936 98.8829 4.13936C96.536 4.13936 94.5802 4.98257 92.9374 6.59233C91.2945 8.20208 90.5122 10.1185 90.5122 12.4181C90.5122 14.7178 91.2945 16.6341 92.9374 18.2439C94.5802 19.8536 96.536 20.6202 98.8829 20.6202C100.839 20.6202 102.638 20.007 104.124 18.7805C104.124 18.6272 104.281 18.5505 104.437 18.5505Z" fill="#252528"/>
<path d="M127.046 12.2648C127.046 14.9477 126.107 17.2474 124.151 19.1638C122.195 21.0801 119.927 22 117.189 22C115.859 22 114.607 21.77 113.434 21.2334C112.26 20.6969 111.165 20.007 110.226 19.1638C109.287 18.2439 108.583 17.1707 108.114 16.0209C107.645 14.8711 107.332 13.6446 107.332 12.3415C107.332 9.65853 108.27 7.35888 110.226 5.51916C112.182 3.60278 114.529 2.68292 117.267 2.68292C120.005 2.68292 122.352 3.60278 124.229 5.51916C126.029 7.28223 127.046 9.58188 127.046 12.2648ZM117.11 4.06271C114.842 4.06271 112.808 4.90592 111.165 6.51568C109.522 8.12543 108.74 10.0418 108.74 12.3415C108.74 14.6411 109.522 16.5575 111.165 18.1672C112.808 19.777 114.764 20.5435 117.11 20.5435C119.457 20.5435 121.413 19.777 123.056 18.1672C124.699 16.5575 125.481 14.6411 125.481 12.3415C125.481 10.1185 124.621 8.12543 123.056 6.51568C121.413 4.82926 119.379 4.06271 117.11 4.06271Z" fill="#252528"/>
<path d="M130.566 6.43901V21.1568C130.566 21.3867 130.488 21.5401 130.331 21.6934C130.175 21.8467 130.018 21.9233 129.784 21.9233C129.549 21.9233 129.393 21.8467 129.236 21.6934C129.08 21.5401 129.001 21.3867 129.001 21.1568V3.29615C129.001 3.06619 129.08 2.91288 129.236 2.75957C129.393 2.60626 129.549 2.5296 129.784 2.5296C130.097 2.5296 130.331 2.68291 130.488 2.91288L138.937 19.547L147.386 2.91288C147.542 2.68291 147.777 2.5296 148.09 2.5296C148.324 2.5296 148.481 2.60626 148.637 2.75957C148.794 2.91288 148.872 3.06619 148.872 3.29615V21.2334C148.872 21.4634 148.794 21.6167 148.637 21.77C148.481 21.9233 148.324 22 148.09 22C147.855 22 147.698 21.9233 147.542 21.77C147.386 21.6167 147.307 21.4634 147.307 21.2334V6.43901L139.563 21.6167C139.406 21.8467 139.171 22 138.937 22C138.624 22 138.389 21.8467 138.233 21.5401L130.566 6.43901Z" fill="#252528"/>
<path d="M152.314 6.43901V21.1568C152.314 21.3867 152.236 21.5401 152.079 21.6934C151.923 21.8467 151.766 21.9233 151.532 21.9233C151.297 21.9233 151.141 21.8467 150.984 21.6934C150.828 21.5401 150.749 21.3867 150.749 21.1568V3.29615C150.749 3.06619 150.828 2.91288 150.984 2.75957C151.141 2.60626 151.297 2.5296 151.532 2.5296C151.845 2.5296 152.079 2.68291 152.236 2.91288L160.685 19.547L169.133 2.91288C169.29 2.68291 169.525 2.5296 169.838 2.5296C170.072 2.5296 170.229 2.60626 170.385 2.75957C170.542 2.91288 170.62 3.06619 170.62 3.29615V21.2334C170.62 21.4634 170.542 21.6167 170.385 21.77C170.229 21.9233 170.072 22 169.838 22C169.603 22 169.446 21.9233 169.29 21.77C169.133 21.6167 169.055 21.4634 169.055 21.2334V6.43901L161.31 21.6167C161.154 21.8467 160.919 22 160.685 22C160.372 22 160.137 21.8467 159.981 21.5401L152.314 6.43901Z" fill="#252528"/>
<path d="M185.562 2.5296C185.796 2.5296 185.953 2.60626 186.109 2.75957C186.266 2.91288 186.344 3.06619 186.344 3.29615C186.344 3.52612 186.266 3.67943 186.109 3.83274C185.953 3.98605 185.796 4.0627 185.562 4.0627H174.14V11.4982H182.511C182.746 11.4982 182.902 11.5749 183.058 11.7282C183.215 11.8815 183.293 12.0348 183.293 12.2648C183.293 12.4948 183.215 12.6481 183.058 12.8014C182.902 12.9547 182.746 13.0313 182.511 13.0313H174.14V20.4669H185.562C185.796 20.4669 185.953 20.5435 186.109 20.6968C186.266 20.8502 186.344 21.0035 186.344 21.2334C186.344 21.4634 186.266 21.6167 186.109 21.77C185.953 21.9233 185.796 22 185.562 22H173.358C173.123 22 172.967 21.9233 172.81 21.77C172.654 21.6167 172.576 21.4634 172.576 21.2334V3.29615C172.576 3.06619 172.654 2.91288 172.81 2.75957C172.967 2.60626 173.123 2.5296 173.358 2.5296H185.562Z" fill="#252528"/>
<path d="M189.943 21.2334C189.943 21.4634 189.864 21.6167 189.708 21.77C189.552 21.9233 189.395 22 189.16 22C188.926 22 188.769 21.9233 188.613 21.77C188.456 21.6167 188.378 21.4634 188.378 21.2334V3.29615C188.378 3.06619 188.456 2.91288 188.613 2.75957C188.769 2.60626 188.926 2.5296 189.16 2.5296C189.395 2.5296 189.63 2.60626 189.708 2.75957L202.616 19.0104V3.29615C202.616 3.06619 202.694 2.91288 202.851 2.75957C203.007 2.60626 203.164 2.5296 203.398 2.5296C203.633 2.5296 203.789 2.60626 203.946 2.75957C204.102 2.91288 204.181 3.06619 204.181 3.29615V21.2334C204.181 21.4634 204.102 21.6167 203.946 21.77C203.789 21.9233 203.633 22 203.398 22C203.164 22 202.929 21.9233 202.851 21.77L189.943 5.51915V21.2334Z" fill="#252528"/>
<path d="M207.075 4.0627C206.84 4.0627 206.684 3.98605 206.527 3.83274C206.371 3.67943 206.293 3.52612 206.293 3.29615C206.293 3.06619 206.371 2.91288 206.527 2.75957C206.684 2.60626 206.84 2.5296 207.075 2.5296H220.296C220.531 2.5296 220.687 2.60626 220.844 2.75957C221 2.91288 221.078 3.06619 221.078 3.29615C221.078 3.52612 221 3.67943 220.844 3.83274C220.687 3.98605 220.531 4.0627 220.296 4.0627H214.429V21.2334C214.429 21.4634 214.35 21.6167 214.194 21.77C214.038 21.9233 213.881 22 213.646 22C213.412 22 213.255 21.9233 213.099 21.77C212.942 21.6167 212.864 21.4634 212.864 21.2334V4.0627H207.075Z" fill="#252528"/>
</g>
<defs>
<clipPath id="clip0_7_2">
<rect width="221" height="22" fill="white"/>
</clipPath>
</defs>
</svg>
